<svg width="33" height="32" viewBox="0 0 33 32" fill="none" xmlns="http://www.w3.org/2000/svg">
<rect x="0.619141" y="0.5" width="31" height="31" rx="7.5" stroke="#D3D5DA"/>
<path d="M11.959 17.9166C13.1348 17.9166 14.084 16.9675 14.084 15.7916C14.084 14.6158 13.1348 13.6666 11.959 13.6666C10.7832 13.6666 9.83398 14.6158 9.83398 15.7916C9.83398 16.9675 10.7832 17.9166 11.959 17.9166ZM11.959 15.0833C12.3486 15.0833 12.6673 15.402 12.6673 15.7916C12.6673 16.1812 12.3486 16.5 11.959 16.5C11.5694 16.5 11.2507 16.1812 11.2507 15.7916C11.2507 15.402 11.5694 15.0833 11.959 15.0833ZM20.459 12.9583H14.7923V18.625H9.12565V11.5416H7.70898V22.1666H9.12565V20.0416H21.8757V22.1666H23.2923V15.7916C23.2923 14.2262 22.0244 12.9583 20.459 12.9583ZM21.8757 18.625H16.209V14.375H20.459C21.2382 14.375 21.8757 15.0125 21.8757 15.7916V18.625Z" fill="#3B9AA4"/>
</svg>
