<svg width="33" height="32" viewBox="0 0 33 32" fill="none" xmlns="http://www.w3.org/2000/svg">
<rect x="0.619141" y="0.5" width="31" height="31" rx="7.5" stroke="#D3D5DA"/>
<path d="M18.6865 12.9141C18.5426 12.9141 18.4181 12.8615 18.313 12.7563C18.2078 12.6512 18.1553 12.5267 18.1553 12.3828C18.1553 12.1006 18.2078 11.8294 18.313 11.5693C18.4181 11.3092 18.5731 11.0796 18.7778 10.8804L19.4336 10.2163C19.6439 10.006 19.749 9.75423 19.749 9.46094C19.749 9.31706 19.8016 9.19255 19.9067 9.0874C20.0119 8.98226 20.1364 8.92969 20.2803 8.92969C20.4242 8.92969 20.5487 8.98226 20.6538 9.0874C20.759 9.19255 20.8115 9.31706 20.8115 9.46094C20.8115 9.74316 20.759 10.0143 20.6538 10.2744C20.5487 10.5345 20.3937 10.7642 20.189 10.9634L19.5332 11.6274C19.3229 11.8377 19.2178 12.0895 19.2178 12.3828C19.2178 12.5267 19.1652 12.6512 19.0601 12.7563C18.9549 12.8615 18.8304 12.9141 18.6865 12.9141ZM15.499 12.9141C15.3551 12.9141 15.2306 12.8615 15.1255 12.7563C15.0203 12.6512 14.9678 12.5267 14.9678 12.3828C14.9678 12.1006 15.0203 11.8294 15.1255 11.5693C15.2306 11.3092 15.3856 11.0796 15.5903 10.8804L16.2461 10.2163C16.4564 10.006 16.5615 9.75423 16.5615 9.46094C16.5615 9.31706 16.6141 9.19255 16.7192 9.0874C16.8244 8.98226 16.9489 8.92969 17.0928 8.92969C17.2367 8.92969 17.3612 8.98226 17.4663 9.0874C17.5715 9.19255 17.624 9.31706 17.624 9.46094C17.624 9.74316 17.5715 10.0143 17.4663 10.2744C17.3612 10.5345 17.2062 10.7642 17.0015 10.9634L16.3457 11.6274C16.1354 11.8377 16.0303 12.0895 16.0303 12.3828C16.0303 12.5267 15.9777 12.6512 15.8726 12.7563C15.7674 12.8615 15.6429 12.9141 15.499 12.9141ZM22.4053 14.375C22.6266 14.375 22.8341 14.4165 23.0278 14.4995C23.2215 14.5825 23.3903 14.696 23.5342 14.8398C23.6781 14.9837 23.7915 15.1525 23.8745 15.3462C23.9575 15.5399 23.999 15.7474 23.999 15.9688V19.1562C23.999 19.3776 23.9575 19.5851 23.8745 19.7788C23.7915 19.9725 23.6781 20.1413 23.5342 20.2852C23.3903 20.429 23.2215 20.5425 23.0278 20.6255C22.8341 20.7085 22.6266 20.75 22.4053 20.75H21.9321C21.9211 20.7887 21.9128 20.8247 21.9072 20.8579C21.9017 20.8911 21.8906 20.9243 21.874 20.9575V21.2812C21.874 21.6465 21.8049 21.9896 21.6665 22.3105C21.5282 22.6315 21.3372 22.9137 21.0938 23.1572C20.8503 23.4007 20.568 23.5916 20.2471 23.73C19.9261 23.8683 19.583 23.9375 19.2178 23.9375H16.0303C15.5986 23.9375 15.2002 23.8407 14.835 23.647C14.4697 23.4533 14.1654 23.196 13.9219 22.875H9.77148C9.40625 22.875 9.06315 22.8058 8.74219 22.6675C8.42122 22.5291 8.139 22.341 7.89551 22.103C7.65202 21.8651 7.4611 21.5828 7.32275 21.2563C7.18441 20.9299 7.11523 20.584 7.11523 20.2188V19.6875H9.24023C9.24023 19.2503 9.32324 18.8381 9.48926 18.4507C9.65527 18.0633 9.88493 17.7257 10.1782 17.438C10.4715 17.1502 10.8091 16.9206 11.1909 16.749C11.5728 16.5775 11.985 16.4945 12.4277 16.5C12.5938 16.5 12.7542 16.5138 12.9092 16.5415C13.0641 16.5692 13.2191 16.6079 13.374 16.6577V13.3125H21.874V14.375H22.4053ZM12.4277 17.5625C12.1344 17.5625 11.8605 17.6178 11.606 17.7285C11.3514 17.8392 11.1245 17.9914 10.9253 18.1851C10.7261 18.3787 10.5739 18.6029 10.4688 18.8574C10.3636 19.112 10.3083 19.3887 10.3027 19.6875H13.374V17.7949C13.2301 17.723 13.0807 17.6676 12.9258 17.6289C12.7708 17.5902 12.6048 17.568 12.4277 17.5625ZM9.77148 21.8125H13.4321C13.3934 21.652 13.374 21.4749 13.374 21.2812V20.75H8.26904C8.32438 20.9049 8.40186 21.0461 8.50146 21.1733C8.60107 21.3006 8.71452 21.4141 8.8418 21.5137C8.96908 21.6133 9.11296 21.6852 9.27344 21.7295C9.43392 21.7738 9.59993 21.8014 9.77148 21.8125ZM13.6147 22.3687V22.377L13.623 22.3936V22.3853L13.6147 22.3687ZM20.8115 21.2812V14.375H14.4365V21.2812C14.4365 21.5026 14.478 21.7101 14.561 21.9038C14.644 22.0975 14.7575 22.2663 14.9014 22.4102C15.0452 22.554 15.214 22.6675 15.4077 22.7505C15.6014 22.8335 15.8089 22.875 16.0303 22.875H19.2178C19.4391 22.875 19.6466 22.8335 19.8403 22.7505C20.034 22.6675 20.2028 22.554 20.3467 22.4102C20.4906 22.2663 20.604 22.0975 20.687 21.9038C20.77 21.7101 20.8115 21.5026 20.8115 21.2812ZM22.9365 19.1562V15.9688C22.9365 15.8249 22.884 15.7004 22.7788 15.5952C22.6737 15.4901 22.5492 15.4375 22.4053 15.4375H21.874V19.6875H22.4053C22.5492 19.6875 22.6737 19.6349 22.7788 19.5298C22.884 19.4246 22.9365 19.3001 22.9365 19.1562Z" fill="#3B9AA4"/>
</svg>
