<svg width="36" height="35" viewBox="0 0 36 35" fill="none" xmlns="http://www.w3.org/2000/svg">
<rect x="1.24599" y="0.409926" width="33.614" height="33.614" rx="6.1489" stroke="#D3D5DA" stroke-width="0.819853"/>
<g clip-path="url(#clip0_300_1179)">
<path d="M18.0527 11.7921V9.7229M18.0527 24.7108V22.6417M21.8913 13.3783L23.3484 11.9211M12.7569 22.5126L14.2183 21.0513M14.2183 13.3741L12.7611 11.917M23.3567 22.5126L21.8954 21.0513M12.6279 17.2169H10.5587M25.5467 17.2169H23.4775M21.5499 17.2169C21.5499 19.1483 19.9841 20.7141 18.0527 20.7141C16.1212 20.7141 14.5555 19.1483 14.5555 17.2169C14.5555 15.2854 16.1212 13.7197 18.0527 13.7197C19.9841 13.7197 21.5499 15.2854 21.5499 17.2169Z" stroke="#FBBF24" stroke-width="1.22978" stroke-miterlimit="10" stroke-linecap="round"/>
</g>
<defs>
<clipPath id="clip0_300_1179">
<rect width="15.6124" height="15.6124" fill="white" transform="translate(10.2462 9.41064)"/>
</clipPath>
</defs>
</svg>
