<svg width="33" height="33" viewBox="0 0 33 33" fill="none" xmlns="http://www.w3.org/2000/svg">
<rect x="0.298828" y="0.713867" width="32" height="32" rx="16" fill="#3B9AA4"/>
<path d="M14.611 22.946C14.6147 22.9893 14.6335 23.03 14.6643 23.0607C14.695 23.0915 14.7357 23.1103 14.779 23.114H17.099C17.1401 23.114 17.1796 23.0983 17.2094 23.07C17.2392 23.0417 17.257 23.003 17.259 22.962V16.666H18.947C18.9884 16.6645 19.028 16.6484 19.0587 16.6206C19.0895 16.5928 19.1094 16.555 19.115 16.514L19.283 14.626C19.2841 14.6033 19.2806 14.5805 19.2726 14.5592C19.2647 14.5379 19.2525 14.5184 19.2367 14.502C19.221 14.4855 19.2021 14.4724 19.1812 14.4635C19.1603 14.4545 19.1378 14.45 19.115 14.45H17.275V13.106C17.274 13.0318 17.2877 12.9581 17.3153 12.8892C17.343 12.8204 17.3841 12.7577 17.4362 12.7048C17.4883 12.652 17.5504 12.61 17.6189 12.5814C17.6873 12.5527 17.7608 12.538 17.835 12.538H19.123C19.1676 12.538 19.2103 12.5203 19.2418 12.4888C19.2733 12.4573 19.291 12.4145 19.291 12.37V10.482C19.2932 10.462 19.2915 10.4418 19.2858 10.4225C19.2802 10.4032 19.2707 10.3852 19.2581 10.3696C19.2454 10.354 19.2298 10.341 19.2121 10.3315C19.1944 10.3219 19.175 10.316 19.155 10.314H16.955C16.3396 10.3118 15.7482 10.5526 15.3093 10.984C14.8704 11.4154 14.6195 12.0026 14.611 12.618V14.458H13.459C13.4373 14.458 13.4158 14.4623 13.3959 14.4709C13.3759 14.4794 13.3579 14.4919 13.343 14.5076C13.328 14.5233 13.3164 14.5419 13.3088 14.5623C13.3013 14.5826 13.2979 14.6043 13.299 14.626V16.514C13.299 16.5551 13.3147 16.5946 13.343 16.6244C13.3713 16.6542 13.41 16.6719 13.451 16.674H14.611V22.946Z" fill="white"/>
</svg>
