<svg width="33" height="33" viewBox="0 0 33 33" fill="none" xmlns="http://www.w3.org/2000/svg">
<rect x="0.298828" y="0.713867" width="32" height="32" rx="16" fill="#3B9AA4"/>
<g clip-path="url(#clip0_300_749)">
<path d="M13.1791 9.18563C10.3711 9.31363 8.89108 10.8976 8.77108 13.5936C8.68308 15.6736 8.68308 17.7616 8.77108 19.8416C8.89108 22.5376 10.3711 24.1376 13.1791 24.2496C15.2591 24.3456 17.3417 24.3456 19.4271 24.2496C22.1231 24.1296 23.7151 22.6496 23.8351 19.8416C23.9311 17.7936 23.9311 15.6416 23.8351 13.5936C23.7071 10.8336 22.1791 9.30563 19.4271 9.18563C17.3471 9.09763 15.2591 9.09763 13.1791 9.18563ZM19.3631 10.5536C21.4111 10.6336 22.3871 11.6176 22.4751 13.6576C22.5631 15.6976 22.5631 17.7376 22.4751 19.7856C22.3871 21.8336 21.3551 22.8016 19.3631 22.8896C17.3711 22.9776 15.2831 22.9856 13.2351 22.8896C11.1871 22.7936 10.2191 21.8896 10.1311 19.7856C10.0431 17.6816 10.0431 15.6976 10.1311 13.6496C10.2191 11.6016 11.1311 10.6336 13.2351 10.5536C15.3391 10.4736 17.3231 10.4576 19.3631 10.5536ZM16.2991 19.2416C15.7991 19.2416 15.3103 19.0934 14.8946 18.8156C14.4789 18.5378 14.1548 18.143 13.9635 17.6811C13.7722 17.2191 13.7221 16.7108 13.8197 16.2204C13.9172 15.7301 14.158 15.2796 14.5115 14.9261C14.8651 14.5725 15.3155 14.3317 15.8059 14.2342C16.2963 14.1367 16.8046 14.1867 17.2665 14.3781C17.7284 14.5694 18.1233 14.8934 18.401 15.3091C18.6788 15.7249 18.8271 16.2136 18.8271 16.7136C18.8281 17.0459 18.7635 17.3751 18.6368 17.6823C18.5101 17.9895 18.324 18.2686 18.089 18.5036C17.854 18.7385 17.5749 18.9247 17.2678 19.0513C16.9606 19.178 16.6314 19.2427 16.2991 19.2416ZM16.2991 12.8416C15.7744 12.8111 15.2489 12.8871 14.7543 13.0651C14.2597 13.243 13.8063 13.5191 13.4212 13.8769C13.0362 14.2347 12.7275 14.6666 12.5138 15.1468C12.3 15.627 12.1857 16.1455 12.1776 16.671C12.1695 17.1966 12.2678 17.7183 12.4666 18.2049C12.6654 18.6914 12.9607 19.1327 13.3345 19.5021C13.7083 19.8716 14.1531 20.1616 14.6419 20.3547C15.1308 20.5478 15.6537 20.6399 16.1791 20.6256H16.2991C16.825 20.6495 17.3504 20.5665 17.8433 20.3816C18.3363 20.1968 18.7867 19.914 19.1673 19.5502C19.548 19.1865 19.8509 18.7493 20.0579 18.2652C20.2649 17.7811 20.3716 17.2601 20.3716 16.7336C20.3716 16.2071 20.2649 15.6861 20.0579 15.202C19.8509 14.7179 19.548 14.2808 19.1673 13.917C18.7867 13.5533 18.3363 13.2704 17.8433 13.0856C17.3504 12.9008 16.825 12.8178 16.2991 12.8416ZM21.2511 12.7136C21.2702 12.8354 21.2645 12.9597 21.2342 13.0791C21.204 13.1986 21.1498 13.3107 21.0751 13.4086C21.0003 13.5066 20.9065 13.5883 20.7992 13.649C20.692 13.7097 20.5735 13.748 20.4511 13.7616C20.3289 13.7808 20.2041 13.7751 20.0842 13.7449C19.9643 13.7148 19.8516 13.6607 19.7531 13.5861C19.6545 13.5114 19.572 13.4176 19.5105 13.3103C19.449 13.203 19.4097 13.0844 19.3951 12.9616C19.3871 12.8845 19.3871 12.8068 19.3951 12.7296V12.7136C19.4163 12.4875 19.5212 12.2775 19.6891 12.1246C19.857 11.9717 20.076 11.887 20.3031 11.887C20.5302 11.887 20.7491 11.9717 20.9171 12.1246C21.085 12.2775 21.1898 12.4875 21.2111 12.7136H21.2511Z" fill="white"/>
</g>
<defs>
<clipPath id="clip0_300_749">
<rect width="16" height="16" fill="white" transform="translate(8.29883 8.71387)"/>
</clipPath>
</defs>
</svg>
