<svg width="35" height="35" viewBox="0 0 35 35" fill="none" xmlns="http://www.w3.org/2000/svg">
<g clip-path="url(#clip0_649_183)">
<path d="M26.544 22.546C25.5656 22.546 24.6219 22.4211 23.7129 22.1713C22.804 21.9215 21.9574 21.5606 21.1733 21.0888C20.3892 20.617 19.6711 20.0618 19.0188 19.4235C18.3666 18.7851 17.808 18.0669 17.3431 17.269C16.8782 16.471 16.5208 15.621 16.271 14.7189C16.0212 13.8169 15.8928 12.8732 15.8859 11.8879C15.8859 10.965 16.0039 10.0595 16.2398 9.1713C16.4757 8.28313 16.8192 7.44006 17.2702 6.64209C16.382 6.75311 15.532 6.96475 14.7202 7.277C13.9083 7.58924 13.1555 7.98823 12.4616 8.47395C11.7677 8.95967 11.1397 9.51825 10.5777 10.1497C10.0156 10.7811 9.53686 11.4715 9.14134 12.2209C8.74582 12.9703 8.43705 13.7648 8.215 14.6044C7.99296 15.444 7.88541 16.3149 7.89235 17.2169C7.89235 18.1953 8.01724 19.139 8.26704 20.048C8.51684 20.957 8.87766 21.8035 9.34951 22.5876C9.82135 23.3717 10.3765 24.0899 11.0148 24.7421C11.6532 25.3944 12.3714 25.9529 13.1693 26.4178C13.9673 26.8827 14.8173 27.2401 15.7194 27.4899C16.6214 27.7397 17.5651 27.8681 18.5504 27.875C19.508 27.875 20.4413 27.7501 21.3503 27.5003C22.2593 27.2505 23.1127 26.8932 23.9107 26.4282C24.7087 25.9633 25.4442 25.3944 26.1173 24.7213C26.7903 24.0482 27.3593 23.2954 27.8242 22.4627C27.6091 22.4904 27.3975 22.5113 27.1893 22.5251C26.9811 22.539 26.766 22.546 26.544 22.546ZM18.5504 26.5427C17.69 26.5427 16.8643 26.4317 16.0733 26.2097C15.2822 25.9876 14.5398 25.6754 13.8459 25.2729C13.152 24.8705 12.524 24.3848 11.962 23.8158C11.3999 23.2468 10.9142 22.6188 10.5048 21.9319C10.0954 21.2449 9.77971 20.5025 9.55767 19.7045C9.33563 18.9065 9.22461 18.0773 9.22461 17.2169C9.22461 16.2732 9.36338 15.3608 9.64094 14.4795C9.91849 13.5983 10.3071 12.7795 10.8067 12.0232C11.3063 11.2668 11.9169 10.5938 12.6385 10.004C13.3602 9.41416 14.1547 8.94232 15.022 8.58844C14.7098 9.66396 14.5537 10.7638 14.5537 11.8879C14.5537 12.9009 14.6751 13.8793 14.9179 14.823C15.1608 15.7667 15.5077 16.6618 15.9588 17.5083C16.4098 18.3549 16.9545 19.1355 17.5929 19.8502C18.2312 20.5649 18.9425 21.1963 19.7266 21.7445C20.5107 22.2927 21.3572 22.7402 22.2662 23.0872C23.1752 23.4341 24.1362 23.6701 25.1493 23.795C24.2611 24.6831 23.255 25.3631 22.1309 25.835C21.0068 26.3068 19.8133 26.5427 18.5504 26.5427Z" fill="#767676"/>
</g>
<rect x="0.409926" y="0.409926" width="33.614" height="33.614" rx="6.1489" stroke="#D3D5DA" stroke-width="0.819853"/>
<defs>
<clipPath id="clip0_649_183">
<rect width="21.3162" height="21.3162" fill="white" transform="matrix(-1 0 0 1 27.875 6.55884)"/>
</clipPath>
</defs>
</svg>
