<svg width="24" height="24" viewBox="0 0 24 24" fill="none" xmlns="http://www.w3.org/2000/svg">
<path fill-rule="evenodd" clip-rule="evenodd" d="M2.66406 11.1406C2.66406 15.8221 6.45915 19.6172 11.1406 19.6172C15.8221 19.6172 19.6172 15.8221 19.6172 11.1406C19.6172 6.45915 15.8221 2.66406 11.1406 2.66406C6.45915 2.66406 2.66406 6.45915 2.66406 11.1406ZM11.1406 21.0703C5.65661 21.0703 1.21094 16.6246 1.21094 11.1406C1.21094 5.65661 5.65661 1.21094 11.1406 1.21094C16.6246 1.21094 21.0703 5.65661 21.0703 11.1406C21.0703 13.6211 20.1608 15.8892 18.657 17.6295L21.8263 20.7987C22.11 21.0825 22.11 21.5425 21.8263 21.8263C21.5425 22.11 21.0825 22.11 20.7987 21.8263L17.6295 18.657C15.8892 20.1608 13.6211 21.0703 11.1406 21.0703Z" fill="black"/>
</svg>
