<svg width="32" height="32" viewBox="0 0 32 32" fill="none" xmlns="http://www.w3.org/2000/svg">
<rect x="0.5" y="0.5" width="31" height="31" rx="7.5" stroke="#D3D5DA"/>
<path d="M21.3013 21.2812H9.78596C9.45871 21.2812 9.15979 21.102 9.00537 20.8137C8.85096 20.5254 8.86796 20.1776 9.04929 19.9049L11.974 15.5189C12.2984 15.0316 12.819 14.7185 13.402 14.6611C13.8199 14.6179 14.2336 14.7121 14.5863 14.9218L15.5256 12.7295C15.7728 12.1536 16.3161 11.7832 16.9437 11.7648C17.562 11.7676 18.1351 12.0835 18.4163 12.6452L22.094 20.0006C22.2321 20.2768 22.2172 20.5991 22.055 20.8619C21.8928 21.1247 21.6109 21.2819 21.302 21.2819L21.3013 21.2812ZM10.1167 20.2187H21.0145L17.465 13.1198C17.3247 12.8393 17.057 12.8159 16.9741 12.8273C16.8948 12.8294 16.6256 12.8591 16.5017 13.1481L15.4207 15.6705L16.5831 16.8336C16.7907 17.0411 16.7907 17.3776 16.5831 17.5851C16.3756 17.7927 16.0391 17.7927 15.8316 17.5851L14.4291 16.1826C14.4199 16.1734 14.4107 16.1649 14.4015 16.155L14.2201 15.9737C14.0317 15.786 13.7725 15.6967 13.5061 15.7194C13.2412 15.7456 13.0046 15.888 12.8573 16.1097L10.116 20.2209L10.1167 20.2187Z" fill="#3B9AA4"/>
</svg>
