<svg width="33" height="32" viewBox="0 0 33 32" fill="none" xmlns="http://www.w3.org/2000/svg">
<rect x="0.619141" y="0.5" width="31" height="31" rx="7.5" stroke="#D3D5DA"/>
<g clip-path="url(#clip0_300_1189)">
<path d="M9.83203 15.0833C9.83203 12.4122 9.83203 11.0763 10.6622 10.2468C11.4917 9.41663 12.8276 9.41663 15.4987 9.41663C18.1698 9.41663 19.5057 9.41663 20.3352 10.2468C21.1654 11.0763 21.1654 12.4122 21.1654 15.0833V16.5C21.1654 19.1711 21.1654 20.507 20.3352 21.3365C19.5057 22.1666 18.1698 22.1666 15.4987 22.1666C12.8276 22.1666 11.4917 22.1666 10.6622 21.3365C9.83203 20.507 9.83203 19.1711 9.83203 16.5V15.0833Z" stroke="#3B9AA4"/>
<path d="M17.9785 19.3333H19.041M11.9577 19.3333H13.0202M11.2493 21.8124V22.8749C11.2493 23.0628 11.324 23.243 11.4568 23.3758C11.5897 23.5086 11.7698 23.5833 11.9577 23.5833H13.0202C13.208 23.5833 13.3882 23.5086 13.521 23.3758C13.6539 23.243 13.7285 23.0628 13.7285 22.8749V22.1666M19.7493 21.8124V22.8749C19.7493 23.0628 19.6747 23.243 19.5419 23.3758C19.409 23.5086 19.2289 23.5833 19.041 23.5833H17.9785C17.7907 23.5833 17.6105 23.5086 17.4776 23.3758C17.3448 23.243 17.2702 23.0628 17.2702 22.8749V22.1666M21.166 14.3749H21.8743C22.0622 14.3749 22.2424 14.4496 22.3752 14.5824C22.5081 14.7152 22.5827 14.8954 22.5827 15.0833V15.7916C22.5827 15.9016 22.5571 16.01 22.5079 16.1084C22.4587 16.2067 22.3873 16.2923 22.2994 16.3583L21.166 17.2083H9.83268L8.69935 16.3583C8.61138 16.2923 8.53997 16.2067 8.4908 16.1084C8.44162 16.01 8.41602 15.9016 8.41602 15.7916V15.0833C8.41602 14.8954 8.49064 14.7152 8.62348 14.5824C8.75632 14.4496 8.93649 14.3749 9.12435 14.3749H9.83268" stroke="#3B9AA4" stroke-linecap="round" stroke-linejoin="round"/>
<path d="M20.8125 11.5416H10.1875" stroke="#3B9AA4" stroke-linecap="round"/>
</g>
<defs>
<clipPath id="clip0_300_1189">
<rect width="17" height="17" fill="white" transform="translate(7 8)"/>
</clipPath>
</defs>
</svg>
