<svg width="32" height="33" viewBox="0 0 32 33" fill="none" xmlns="http://www.w3.org/2000/svg">
<rect y="0.713867" width="32" height="32" rx="16" fill="#3B9AA4"/>
<path d="M23 16.9562C23 16.9218 23 16.8827 22.9984 16.8374C22.9969 16.7108 22.9938 16.5687 22.9906 16.4171C22.9781 15.9812 22.9563 15.5468 22.9219 15.1374C22.875 14.5733 22.8062 14.103 22.7125 13.7499C22.6136 13.3814 22.4196 13.0453 22.1501 12.7752C21.8806 12.5051 21.5449 12.3105 21.1766 12.2108C20.7344 12.0921 19.8687 12.0187 18.65 11.9733C18.0703 11.9515 17.45 11.9374 16.8297 11.9296C16.6125 11.9265 16.4109 11.9249 16.2297 11.9233H15.7703C15.5891 11.9249 15.3875 11.9265 15.1703 11.9296C14.55 11.9374 13.9297 11.9515 13.35 11.9733C12.1312 12.0202 11.2641 12.0937 10.8234 12.2108C10.455 12.3103 10.1192 12.5048 9.8496 12.7749C9.58003 13.045 9.38619 13.3813 9.2875 13.7499C9.19219 14.103 9.125 14.5733 9.07812 15.1374C9.04375 15.5468 9.02187 15.9812 9.00937 16.4171C9.00469 16.5687 9.00312 16.7108 9.00156 16.8374C9.00156 16.8827 9 16.9218 9 16.9562V17.0437C9 17.078 9 17.1171 9.00156 17.1624C9.00312 17.289 9.00625 17.4312 9.00937 17.5827C9.02187 18.0187 9.04375 18.453 9.07812 18.8624C9.125 19.4265 9.19375 19.8968 9.2875 20.2499C9.4875 20.9983 10.075 21.589 10.8234 21.789C11.2641 21.9077 12.1312 21.9812 13.35 22.0265C13.9297 22.0483 14.55 22.0624 15.1703 22.0702C15.3875 22.0733 15.5891 22.0749 15.7703 22.0765H16.2297C16.4109 22.0749 16.6125 22.0733 16.8297 22.0702C17.45 22.0624 18.0703 22.0483 18.65 22.0265C19.8687 21.9796 20.7359 21.9062 21.1766 21.789C21.925 21.589 22.5125 20.9999 22.7125 20.2499C22.8078 19.8968 22.875 19.4265 22.9219 18.8624C22.9563 18.453 22.9781 18.0187 22.9906 17.5827C22.9953 17.4312 22.9969 17.289 22.9984 17.1624C22.9984 17.1171 23 17.078 23 17.0437V16.9562ZM21.875 17.0374C21.875 17.0702 21.875 17.1062 21.8734 17.1483C21.8719 17.2702 21.8688 17.4046 21.8656 17.5499C21.8547 17.9655 21.8328 18.3812 21.8 18.7671C21.7578 19.2702 21.6984 19.6827 21.625 19.9593C21.5281 20.3202 21.2437 20.6062 20.8844 20.7015C20.5562 20.789 19.7297 20.8593 18.6062 20.9015C18.0375 20.9233 17.425 20.9374 16.8141 20.9452C16.6 20.9483 16.4016 20.9499 16.2234 20.9499H15.7766L15.1859 20.9452C14.575 20.9374 13.9641 20.9233 13.3938 20.9015C12.2703 20.8577 11.4422 20.789 11.1156 20.7015C10.7562 20.6046 10.4719 20.3202 10.375 19.9593C10.3016 19.6827 10.2422 19.2702 10.2 18.7671C10.1672 18.3812 10.1469 17.9655 10.1344 17.5499C10.1297 17.4046 10.1281 17.2687 10.1266 17.1483C10.1266 17.1062 10.125 17.0687 10.125 17.0374V16.9624C10.125 16.9296 10.125 16.8937 10.1266 16.8515C10.1281 16.7296 10.1313 16.5952 10.1344 16.4499C10.1453 16.0343 10.1672 15.6187 10.2 15.2327C10.2422 14.7296 10.3016 14.3171 10.375 14.0405C10.4719 13.6796 10.7562 13.3937 11.1156 13.2983C11.4437 13.2108 12.2703 13.1405 13.3938 13.0983C13.9625 13.0765 14.575 13.0624 15.1859 13.0546C15.4 13.0515 15.5984 13.0499 15.7766 13.0499H16.2234L16.8141 13.0546C17.425 13.0624 18.0359 13.0765 18.6062 13.0983C19.7297 13.1421 20.5578 13.2108 20.8844 13.2983C21.2437 13.3952 21.5281 13.6796 21.625 14.0405C21.6984 14.3171 21.7578 14.7296 21.8 15.2327C21.8328 15.6187 21.8531 16.0343 21.8656 16.4499C21.8703 16.5952 21.8719 16.7312 21.8734 16.8515C21.8734 16.8937 21.875 16.9312 21.875 16.9624V17.0374ZM14.6094 19.0937L18.2344 16.9843L14.6094 14.9062V19.0937Z" fill="white"/>
</svg>
